<svg xmlns="http://www.w3.org/2000/svg" width="7.188" height="8.847" viewBox="0 0 7.188 8.847">
  <g id="Grupo_466" data-name="Grupo 466" transform="translate(-48)">
    <path id="Caminho_1564" data-name="Caminho 1564" d="M54.5,1.106H52.976V.829A.829.829,0,0,0,52.147,0H51.041a.829.829,0,0,0-.829.829v.276H48.691A.691.691,0,0,0,48,1.8V2.35a.276.276,0,0,0,.276.276h6.635a.276.276,0,0,0,.276-.276V1.8A.691.691,0,0,0,54.5,1.106ZM50.765.829a.277.277,0,0,1,.276-.276h1.106a.277.277,0,0,1,.276.276v.276H50.765Z" fill="#f23737"/>
    <path id="Caminho_1565" data-name="Caminho 1565" d="M73.451,184a.086.086,0,0,0-.086.09l.228,4.787a.828.828,0,0,0,.828.79h4.2a.828.828,0,0,0,.828-.79l.228-4.787a.086.086,0,0,0-.086-.09Zm4.175.691a.276.276,0,1,1,.553,0v3.594a.276.276,0,0,1-.553,0Zm-1.382,0a.276.276,0,0,1,.553,0v3.594a.276.276,0,0,1-.553,0Zm-1.382,0a.276.276,0,1,1,.553,0v3.594a.276.276,0,0,1-.553,0Z" transform="translate(-24.926 -180.821)" fill="#f23737"/>
  </g>
</svg>
