<svg xmlns="http://www.w3.org/2000/svg" width="25.08" height="17.243" viewBox="0 0 25.08 17.243">
  <g id="o-email_2_" data-name="o-email (2)" transform="translate(0 -80)">
    <g id="Grupo_2384" data-name="Grupo 2384" transform="translate(16.625 83.179)">
      <g id="Grupo_2383" data-name="Grupo 2383">
        <path id="Caminho_3504" data-name="Caminho 3504" d="M339.392,150.467l8.455,5.345V144.9Z" transform="translate(-339.392 -144.896)" fill="#0154ad"/>
      </g>
    </g>
    <g id="Grupo_2386" data-name="Grupo 2386" transform="translate(0 83.179)">
      <g id="Grupo_2385" data-name="Grupo 2385">
        <path id="Caminho_3505" data-name="Caminho 3505" d="M0,144.9v10.916l8.455-5.345Z" transform="translate(0 -144.896)" fill="#0154ad"/>
      </g>
    </g>
    <g id="Grupo_2388" data-name="Grupo 2388" transform="translate(0.047 80)">
      <g id="Grupo_2387" data-name="Grupo 2387" transform="translate(0 0)">
        <path id="Caminho_3506" data-name="Caminho 3506" d="M24.426,80H2.48A1.548,1.548,0,0,0,.96,81.334l12.493,8.231,12.493-8.231A1.548,1.548,0,0,0,24.426,80Z" transform="translate(-0.96 -80)" fill="#0154ad"/>
      </g>
    </g>
    <g id="Grupo_2390" data-name="Grupo 2390" transform="translate(0.05 89.695)">
      <g id="Grupo_2389" data-name="Grupo 2389" transform="translate(0 0)">
        <path id="Caminho_3507" data-name="Caminho 3507" d="M16.163,277.922l-2.218,1.461a.787.787,0,0,1-.862,0l-2.218-1.462-9.841,6.225a1.546,1.546,0,0,0,1.517,1.323H24.486A1.546,1.546,0,0,0,26,284.145Z" transform="translate(-1.024 -277.92)" fill="#0154ad"/>
      </g>
    </g>
  </g>
</svg>
