<svg xmlns="http://www.w3.org/2000/svg" width="26" height="26" viewBox="0 0 26 26">
  <path id="encontro" d="M23.969,16.859V6.094a2.034,2.034,0,0,0-2.031-2.031h-1.32V5.078a1.016,1.016,0,1,1-2.031,0V4.062H13.965V5.078a1.016,1.016,0,0,1-2.031,0V4.062H7.363V5.078a1.016,1.016,0,1,1-2.031,0V4.062H4.062A2.034,2.034,0,0,0,2.031,6.094V21.937a2.034,2.034,0,0,0,2.031,2.031H21.937a2.034,2.034,0,0,0,2.031-2.031,1.016,1.016,0,0,1,2.031,0A4.067,4.067,0,0,1,21.937,26H4.062A4.067,4.067,0,0,1,0,21.937V6.094A4.067,4.067,0,0,1,4.062,2.031h1.27V1.016a1.016,1.016,0,1,1,2.031,0V2.031h4.57V1.016a1.016,1.016,0,0,1,2.031,0V2.031h4.621V1.016a1.016,1.016,0,0,1,2.031,0V2.031h1.32A4.067,4.067,0,0,1,26,6.094V16.859a1.016,1.016,0,0,1-2.031,0Zm-16.605-6.2A1.016,1.016,0,1,0,6.348,11.68,1.016,1.016,0,0,0,7.363,10.664Zm8.836,0a1.016,1.016,0,1,0-1.016,1.016A1.016,1.016,0,0,0,16.2,10.664Zm3.4,1.016a1.016,1.016,0,1,0-1.016-1.016A1.016,1.016,0,0,0,19.6,11.68Zm-12.238,3.4A1.016,1.016,0,1,0,6.348,16.1,1.016,1.016,0,0,0,7.363,15.082Zm-1.016,3.4A1.016,1.016,0,1,0,7.363,19.5,1.016,1.016,0,0,0,6.348,18.484Zm5.434-7.82a1.016,1.016,0,1,0-1.016,1.016A1.016,1.016,0,0,0,11.781,10.664Zm0,4.418A1.016,1.016,0,1,0,10.766,16.1,1.016,1.016,0,0,0,11.781,15.082Zm-1.016,3.4A1.016,1.016,0,1,0,11.781,19.5,1.016,1.016,0,0,0,10.766,18.484Zm8.534-.571,1.161-.856a.537.537,0,0,0-.3-.96h-1.44a.458.458,0,0,1-.478-.291l-.452-1.394a.5.5,0,0,0-.956,0l-.452,1.394a.458.458,0,0,1-.478.291H14.47a.537.537,0,0,0-.3.96l1.159.856a.5.5,0,0,1,.183.559l-.452,1.385a.5.5,0,0,0,.773.559l1.184-.857a.5.5,0,0,1,.591,0l1.184.857a.5.5,0,0,0,.773-.559l-.452-1.385a.5.5,0,0,1,.183-.559Zm0,0" fill="#0154ad"/>
</svg>
