<svg xmlns="http://www.w3.org/2000/svg" width="24.137" height="23.991" viewBox="0 0 24.137 23.991">
  <g id="telefone_1_" data-name="telefone (1)" transform="translate(0 -1.48)">
    <g id="Grupo_2285" data-name="Grupo 2285" transform="translate(0 1.48)">
      <path id="Caminho_3474" data-name="Caminho 3474" d="M23.665,20.8l-5.026-5.026a1.446,1.446,0,0,0-2.136,0L14.366,17.91c-2.765,2.89-9.55-3.9-6.789-6.66L9.713,9.115a1.446,1.446,0,0,0,0-2.136L4.688,1.951a1.446,1.446,0,0,0-2.136,0L1.045,3.459C-1.594,6.1.92,12.884,6.826,18.665c5.78,5.78,12.566,8.419,15.205,5.78l1.633-1.508a1.446,1.446,0,0,0,0-2.136Z" transform="translate(0 -1.48)" fill="#0154ad"/>
    </g>
  </g>
</svg>
