<svg xmlns="http://www.w3.org/2000/svg" width="25.54" height="25.543" viewBox="0 0 25.54 25.543">
  <g id="Grupo_2275" data-name="Grupo 2275" transform="translate(-547.032 -189)">
    <g id="Grupo_2272" data-name="Grupo 2272" transform="translate(547.032 205.038)">
      <g id="Grupo_2271" data-name="Grupo 2271" transform="translate(0 0)">
        <path id="Caminho_3454" data-name="Caminho 3454" d="M555.866,251.844l-3.883,1.3a7.23,7.23,0,0,0-4.951,6.867.912.912,0,0,0,.912.912H571.66a.912.912,0,0,0,.912-.912,7.23,7.23,0,0,0-4.951-6.867l-3.883-1.3A18.3,18.3,0,0,0,555.866,251.844Z" transform="translate(-547.032 -251.416)" fill="#0154ad"/>
      </g>
    </g>
    <g id="Grupo_2274" data-name="Grupo 2274" transform="translate(554.329 189)">
      <g id="Grupo_2273" data-name="Grupo 2273" transform="translate(0 0)">
        <path id="Caminho_3455" data-name="Caminho 3455" d="M580.926,189a5.473,5.473,0,0,0-5.473,5.473v3.649a5.473,5.473,0,1,0,10.946,0v-3.649A5.473,5.473,0,0,0,580.926,189Z" transform="translate(-575.453 -189)" fill="#0154ad"/>
      </g>
    </g>
  </g>
</svg>
